<svg xmlns="http://www.w3.org/2000/svg" viewBox="0 0 512 512">
  <defs>
    <filter id="glow">
      <feGaussianBlur in="SourceGraphic" stdDeviation="14"/>
    </filter>
  </defs>
  <rect width="512" height="512" rx="96" fill="#0d0d14"/>
  <!-- Soft glow behind gem -->
  <polygon points="168,72 344,72 440,216 256,448 72,216"
    fill="#00d4ff" opacity="0.2" filter="url(#glow)"/>
  <!-- Crown: Table face (brightest) -->
  <polygon points="168,72 344,72 304,148 208,148" fill="#55faff"/>
  <!-- Crown: Left -->
  <polygon points="168,72 208,148 72,216" fill="#00d8e8"/>
  <!-- Crown: Right -->
  <polygon points="344,72 304,148 440,216" fill="#00b8d0"/>
  <!-- Crown: Center (below table) -->
  <polygon points="208,148 304,148 256,216" fill="#22e8f5"/>
  <!-- Crown: Inner-left -->
  <polygon points="208,148 72,216 256,216" fill="#10c4d8"/>
  <!-- Crown: Inner-right -->
  <polygon points="304,148 440,216 256,216" fill="#0098c0"/>
  <!-- Pavilion: Left -->
  <polygon points="72,216 256,216 256,448" fill="#6872e8"/>
  <!-- Pavilion: Right -->
  <polygon points="440,216 256,216 256,448" fill="#9458e0"/>
  <!-- Facet edges -->
  <g stroke="rgba(255,255,255,0.18)" stroke-width="1.5" fill="none">
    <polygon points="168,72 344,72 440,216 256,448 72,216"/>
    <line x1="208" y1="148" x2="304" y2="148"/>
    <line x1="72" y1="216" x2="440" y2="216"/>
    <line x1="168" y1="72" x2="208" y2="148"/>
    <line x1="344" y1="72" x2="304" y2="148"/>
    <line x1="208" y1="148" x2="72" y2="216"/>
    <line x1="304" y1="148" x2="440" y2="216"/>
    <line x1="208" y1="148" x2="256" y2="216"/>
    <line x1="304" y1="148" x2="256" y2="216"/>
    <line x1="256" y1="216" x2="256" y2="448"/>
  </g>
  <!-- Table highlight -->
  <polygon points="200,88 312,88 288,120 216,120" fill="rgba(255,255,255,0.15)"/>
</svg>
